# xmcd
# Copyright (C) 1995-1998 Ti Kan
#
# Track frame offsets:
#       150
#       22196
#       39184
#       54259
#       74029
#       89704
#       109795
#       132145
#       145780
#       164200
#       183497
#       198247
#       219417
#
# Disc length: 3170 seconds
#
# Revision: 0
# Processed by: cddbd v1.5.2PL0 Copyright (c) Steve Scherf et al.
# Submitted via: CD-Transfer v1.0
#
DISCID=c30c600d
DTITLE=Mann, Aimee - Aimee Mann
DYEAR=93
DGENRE=
TTITLE0=Should We Known
TTITLE1=Fifty Years After The Fair
TTITLE2=4th Of July
TTITLE3=Could've Been Anyone
TTITLE4=Put Me On The Top
TTITLE5=Stupid Thing
TTITLE6=Say Anything
TTITLE7=Jacob Marley's Chain
TTITLE8=Mr. Harris
TTITLE9=I Could Hurt You Now
TTITLE10=I Know There's A Word
TTITLE11=I've Had It
TTITLE12=Way Back When
EXTD=
EXTT0=
EXTT1=
EXTT2=
EXTT3=
EXTT4=
EXTT5=
EXTT6=
EXTT7=
EXTT8=
EXTT9=
EXTT10=
EXTT11=
EXTT12=
PLAYORDER=
